<?xml version="1.0" encoding="UTF-8" standalone="no"?>
<!-- Created with Inkscape (http://www.inkscape.org/) -->

<svg
   width="3840"
   height="2160"
   viewBox="0 0 3840 2160"
   version="1.1"
   id="svg5"
   xmlns="http://www.w3.org/2000/svg"
   xmlns:svg="http://www.w3.org/2000/svg">
  <defs
     id="defs2" />
  <g
     id="layer1">
    <path
       id="path61"
       style="fill:#c87137;stroke-width:4.55717"
       d="M 1781.3209,3.0821043 A 1103.3041,1080.1921 0 0 0 678.00878,1083.2705 1103.3041,1080.1921 0 0 0 1781.3209,2163.4677 1103.3041,1080.1921 0 0 0 2678.271,1711.0033 c -50.3843,-0.2766 -100.7699,-0.5335 -151.1542,-0.82 -77.7749,-0.4289 -155.5518,-0.8734 -233.327,-1.2156 -19.7157,-0.083 -39.4319,-0.102 -59.1479,-0.1425 -17.764,9.1724 -41.8036,13.9296 -71.8832,11.2414 -3.3371,-0.2998 -6.6798,-0.5936 -10.0175,-0.892 -31.6868,-3.1822 -63.7967,-6.7605 -93.3433,-19.7534 -23.9922,-14.0168 -44.5805,-31.3024 -53.3514,-59.3414 -5.7391,-13.9379 -11.3072,-27.8861 -12.7969,-43.0738 -2.5114,-15.7356 -12.9726,-29.579 -15.8928,-45.2176 -8.6818,-32.876 -13.7378,-66.4966 -15.8053,-100.5058 -2.9804,-28.028 -7.7737,-55.9965 -7.0446,-84.2742 -0.045,-2.8768 -0.1216,-5.7524 -0.1487,-8.6291 -33.7006,-0.3275 -67.4006,-0.7662 -101.0832,-1.162 -74.6705,-2.2983 -149.3067,1.7827 -223.8813,5.0982 -30.4686,1.3767 -60.9451,2.6702 -91.4259,3.7292 -137.3064,4.7702 -142.0037,-137.2921 -4.6967,-142.0484 30.0409,-1.0404 60.0781,-2.3296 90.1069,-3.6841 77.1102,-3.4282 154.2805,-7.5443 231.4889,-5.2154 31.5489,0.3709 63.115,0.7939 94.6802,1.126 -0.3016,-5.8057 -0.5448,-11.614 -0.8353,-17.4204 -2.5726,-60.4518 -5.0957,-121.7042 11.5744,-180.5464 23.9279,-67.86539 51.2465,-109.86176 126.9758,-114.61155 30.0477,-2.9311 60.0871,-5.10744 90.2212,-5.44951 10.0446,-0.11328 20.0988,-0.0275 30.1674,0.3063 18.4169,0.60807 34.2819,3.76337 47.7581,8.65613 68.0679,2.79818 136.1521,6.0558 204.2764,5.96303 137.0651,0.36297 274.1288,0.93235 411.1925,1.50416 A 1103.3041,1080.1921 0 0 0 1781.3218,3.0830295 Z M 2180.7803,1040.2687 c -26.8327,0.2527 -53.5656,2.2418 -80.335,4.8639 -1.0934,0.1127 -2.1876,0.2285 -3.2809,0.3422 -0.4009,1.8806 -1.9071,6.8525 -5.7253,19.2311 -8.8329,42.0488 -5.9252,85.2572 -4.0898,127.8706 0.3963,7.7473 0.8003,15.4929 1.2048,23.2394 2.319,-0.055 4.638,-0.1378 6.9571,-0.1984 6.575,-3.6583 17.1975,-5.7199 34.055,-7.1611 40.6444,-3.1247 81.2393,-6.8398 121.8571,-10.3046 124.4495,-9.736 249.1382,-13.0531 373.9096,-15.664 66.0754,-1.5125 132.1212,-2.4668 198.164,-2.5311 18.8268,-0.018 37.6562,0.2173 56.4829,0.3514 a 1103.3041,1080.1921 0 0 0 4.6436,-97.0376 1103.3041,1080.1921 0 0 0 -0.6592,-26.4642 c -141.5467,-0.6008 -283.0932,-1.1838 -424.6406,-1.5583 -76.8295,0.1139 -153.611,-3.9261 -230.3718,-6.9267 -17.3248,-0.6772 -32.3501,-3.5489 -45.1548,-8.0078 -1.0046,0 -2.0124,-0.053 -3.0167,-0.045 z m -89.9307,5.8638 c -2.2186,0.2312 -4.4396,0.4624 -6.6578,0.6936 -4.4334,6.0083 1.2343,2.5932 6.6578,-0.6936 z m 766.0867,276.161 c -76.1543,-0.2822 -152.305,0.5394 -228.4989,2.2879 -122.2735,2.5992 -244.4742,5.7231 -366.4335,15.2856 -6.4616,0.5537 -12.9241,1.0783 -19.3847,1.6396 -13.8368,6.4562 -31.1368,10.5468 -51.6276,11.5025 -4.4063,0.6016 -8.936,1.0945 -13.694,1.3871 -28.0324,1.7252 -56.0821,2.8092 -84.1436,3.477 0.045,2.5975 0.1076,5.1939 0.13,7.7915 -0.6398,23.5644 3.7235,46.7818 6.2268,70.1866 3.215,25.2378 2.6614,52.1424 11.1436,76.4103 6.2949,15.5185 11.9553,31.2498 16.5,47.3978 1.2666,5.4332 1.7278,7.8166 2.3041,10.8627 10.6504,-2.3534 22.1636,-3.9852 35.3394,-3.9722 15.2267,0 7.3558,0 23.6413,0 35.315,0.05 70.6316,0.1198 105.9466,0.2722 77.8336,0.3412 155.6618,0.7941 233.4943,1.2249 78.8962,0.4473 157.7908,0.896 236.6876,1.2792 a 1103.3041,1080.1921 0 0 0 92.3668,-247.0487 z" />
  </g>
</svg>
